<svg width="148" height="46" viewBox="0 0 148 46" fill="none" xmlns="http://www.w3.org/2000/svg">
<path d="M0 3H148V43H9.29469L0 32.6875V3Z" fill="#FCEE0A"/>
<line x1="147.006" y1="0.0549011" x2="147.006" y2="45.9451" stroke="#FCEE0A" stroke-width="1.43407"/>
<path d="M38.7096 19.2101V25.1644C38.7096 26.4264 38.1015 27 36.7822 27H33.1913C31.8719 27 31.2639 26.4264 31.2639 25.1644V23.9942C31.2639 23.8336 31.3442 23.7533 31.5163 23.7533H32.8586C33.0306 23.7533 33.1224 23.8336 33.1224 23.9942V24.6825C33.1224 25.3594 33.283 25.4971 34.0861 25.4971H35.8414C36.6904 25.4971 36.851 25.348 36.851 24.6367V19.2101C36.851 19.061 36.9543 18.9692 37.1149 18.9692H38.4572C38.6178 18.9692 38.7096 19.061 38.7096 19.2101ZM50.9535 20.8048V25.1644C50.9535 26.4264 50.3569 27 49.0375 27H44.4256C43.1177 27 42.4982 26.4264 42.4982 25.1644V20.8048C42.4982 19.5428 43.1177 18.9692 44.4256 18.9692H49.0375C50.3569 18.9692 50.9535 19.5428 50.9535 20.8048ZM49.0949 24.6367V21.3326C49.0949 20.6213 48.9228 20.4721 48.0738 20.4721H45.3778C44.5288 20.4721 44.3567 20.6213 44.3567 21.3326V24.6367C44.3567 25.348 44.5288 25.4971 45.3778 25.4971H48.0738C48.9228 25.4971 49.0949 25.348 49.0949 24.6367ZM56.6591 19.2101V26.7591C56.6591 26.9082 56.5558 27 56.3952 27H55.0529C54.8808 27 54.8005 26.9082 54.8005 26.7591V19.2101C54.8005 19.061 54.8808 18.9692 55.0529 18.9692H56.3952C56.5558 18.9692 56.6591 19.061 56.6591 19.2101ZM68.8388 27H66.5099C66.3263 27 66.2345 26.9541 66.1542 26.805L62.3109 20.4606V26.7591C62.3109 26.9082 62.2191 27 62.0585 27H60.8424C60.6703 27 60.59 26.9082 60.59 26.7591V19.2101C60.59 19.061 60.6703 18.9692 60.8424 18.9692H63.1599C63.3435 18.9692 63.4352 19.0266 63.5155 19.1642L67.3588 25.52V19.2101C67.3588 19.061 67.4621 18.9692 67.6227 18.9692H68.8388C68.9994 18.9692 69.0912 19.061 69.0912 19.2101V26.7591C69.0912 26.9082 68.9994 27 68.8388 27ZM86.917 27H84.5881C84.4045 27 84.3128 26.9541 84.2325 26.805L80.3892 20.4606V26.7591C80.3892 26.9082 80.2974 27 80.1368 27H78.9207C78.7486 27 78.6683 26.9082 78.6683 26.7591V19.2101C78.6683 19.061 78.7486 18.9692 78.9207 18.9692H81.2381C81.4217 18.9692 81.5135 19.0266 81.5938 19.1642L85.4371 25.52V19.2101C85.4371 19.061 85.5403 18.9692 85.7009 18.9692H86.917C87.0777 18.9692 87.1694 19.061 87.1694 19.2101V26.7591C87.1694 26.9082 87.0777 27 86.917 27ZM99.4429 20.8048V25.1644C99.4429 26.4264 98.8463 27 97.527 27H92.915C91.6072 27 90.9876 26.4264 90.9876 25.1644V20.8048C90.9876 19.5428 91.6072 18.9692 92.915 18.9692H97.527C98.8463 18.9692 99.4429 19.5428 99.4429 20.8048ZM97.5844 24.6367V21.3326C97.5844 20.6213 97.4123 20.4721 96.5633 20.4721H93.8673C93.0183 20.4721 92.8462 20.6213 92.8462 21.3326V24.6367C92.8462 25.348 93.0183 25.4971 93.8673 25.4971H96.5633C97.4123 25.4971 97.5844 25.348 97.5844 24.6367ZM112.677 27H110.543C110.36 27 110.268 26.9197 110.222 26.7591L108.765 21.1031L107.308 26.7591C107.274 26.9197 107.17 27 106.987 27H104.853C104.681 27 104.566 26.9197 104.532 26.7591L102.421 19.2101C102.375 19.061 102.444 18.9692 102.604 18.9692H104.05C104.233 18.9692 104.325 19.0495 104.371 19.2101L106.023 25.4856L107.606 19.2101C107.652 19.0495 107.755 18.9692 107.939 18.9692H109.671C109.855 18.9692 109.958 19.0495 109.993 19.2101L111.576 25.4971L113.239 19.2101C113.274 19.0495 113.389 18.9692 113.572 18.9692H114.937C115.086 18.9692 115.155 19.061 115.121 19.2101L112.998 26.7591C112.964 26.9197 112.861 27 112.677 27Z" fill="black"/>
</svg>
