<svg width="36" height="36" viewBox="0 0 36 36" fill="none" xmlns="http://www.w3.org/2000/svg">
<g opacity="0.28">
<path d="M5.75233 15.0947C8.24962 15.5129 10.7758 15.6081 13.2678 15.3776C13.8208 15.3264 14.3258 15.0849 14.7054 14.7054C15.0849 14.3258 15.3264 13.8208 15.3776 13.2678C15.6081 10.7758 15.5129 8.24962 15.0947 5.75233C14.9982 5.17628 14.5762 4.7086 14.013 4.55374C13.4498 4.39888 12.848 4.585 12.4705 5.03074L10.9093 6.87452C9.6781 8.32856 8.32855 9.67811 6.87452 10.9093L5.03074 12.4705C4.585 12.848 4.39888 13.4498 4.55374 14.013C4.7086 14.5762 5.17628 14.9982 5.75233 15.0947Z" fill="white"/>
<path d="M30.2478 20.9051C27.7505 20.487 25.2243 20.3917 22.7323 20.6222C22.1793 20.6734 21.6743 20.9149 21.2947 21.2945C20.9152 21.674 20.6737 22.179 20.6225 22.732C20.392 25.224 20.4872 27.7502 20.9054 30.2475C21.0019 30.8235 21.4239 31.2912 21.9871 31.4461C22.5503 31.6009 23.1521 31.4148 23.5295 30.9691L25.0908 29.1253C26.322 27.6713 27.6715 26.3217 29.1256 25.0905L30.9693 23.5293C31.4151 23.1518 31.6012 22.55 31.4463 21.9868C31.2915 21.4237 30.8238 21.0016 30.2478 20.9051Z" fill="white"/>
</g>
<path d="M30.2527 15.0947C27.7554 15.5129 25.2292 15.6081 22.7372 15.3776C22.1842 15.3264 21.6792 15.0849 21.2997 14.7054C20.9201 14.3258 20.6786 13.8208 20.6274 13.2678C20.3969 10.7758 20.4922 8.24962 20.9104 5.75233C21.0068 5.17628 21.4289 4.7086 21.992 4.55374C22.5552 4.39888 23.1571 4.585 23.5345 5.03074L25.0957 6.87452C26.3269 8.32856 27.6765 9.67811 29.1305 10.9093L30.9743 12.4705C31.42 12.848 31.6061 13.4498 31.4513 14.013C31.2964 14.5762 30.8288 14.9982 30.2527 15.0947Z" fill="white"/>
<path d="M5.74739 20.9051C8.24468 20.487 10.7709 20.3917 13.2629 20.6222C13.8158 20.6734 14.3209 20.9149 14.7004 21.2945C15.0799 21.674 15.3215 22.179 15.3726 22.732C15.6032 25.224 15.5079 27.7502 15.0897 30.2475C14.9933 30.8235 14.5712 31.2912 14.008 31.4461C13.4449 31.6009 12.843 31.4148 12.4656 30.9691L10.9044 29.1253C9.67316 27.6713 8.32361 26.3217 6.86957 25.0905L5.0258 23.5293C4.58006 23.1518 4.39394 22.55 4.5488 21.9868C4.70366 21.4237 5.17134 21.0016 5.74739 20.9051Z" fill="white"/>
</svg>
