<svg width="36" height="36" viewBox="0 0 36 36" fill="none" xmlns="http://www.w3.org/2000/svg">
<path opacity="0.28" d="M12 1.5C7.85786 1.5 4.5 4.85787 4.5 9V27C4.5 31.1421 7.85786 34.5 12 34.5H24C28.1421 34.5 31.5 31.1421 31.5 27V19.2C31.5 17.9151 31.4988 17.0417 31.4437 16.3666C31.3899 15.7089 31.2926 15.3726 31.173 15.138C30.8854 14.5735 30.4265 14.1146 29.862 13.827C29.6274 13.7074 29.2911 13.6101 28.6334 13.5563C27.9583 13.5012 27.0849 13.5 25.8 13.5L25.7422 13.5C24.9515 13.5 24.2693 13.5 23.7075 13.4541C23.1144 13.4057 22.5246 13.2987 21.957 13.0095C21.1103 12.5781 20.4219 11.8897 19.9905 11.043C19.7013 10.4754 19.5943 9.88556 19.5459 9.29254C19.4999 8.73068 19.5 8.04854 19.5 7.25782L19.5 7.2C19.5 5.91513 19.4988 5.04169 19.4437 4.36656C19.3899 3.70893 19.2926 3.37263 19.173 3.13803C18.8854 2.57354 18.4265 2.1146 17.862 1.82698C17.6274 1.70745 17.2911 1.61006 16.6334 1.55633C15.9583 1.50117 15.0849 1.5 13.8 1.5H12Z" fill="white"/>
<path d="M22.4339 4.12237C22.3751 3.40354 22.259 2.7342 21.9962 2.10132C26.2383 3.41405 29.5862 6.76193 30.8989 11.0041C30.2661 10.7413 29.5967 10.6251 28.8779 10.5664C28.0661 10.5001 27.0695 10.5001 25.8621 10.5001H25.8002C24.9353 10.5001 24.3769 10.4989 23.9519 10.4642C23.5444 10.4309 23.3933 10.3744 23.3192 10.3366C23.0369 10.1928 22.8075 9.96334 22.6636 9.6811C22.6259 9.60693 22.5693 9.45585 22.536 9.04836C22.5013 8.62335 22.5002 8.06494 22.5002 7.20011V7.13816C22.5002 5.93072 22.5002 4.93416 22.4339 4.12237Z" fill="white"/>
<path d="M19.5001 16.5C19.5001 15.6716 18.8285 15 18.0001 15C17.1717 15 16.5001 15.6716 16.5001 16.5V22.1737C16.3978 22.0472 16.2978 21.9188 16.2001 21.7885C15.703 21.1257 14.7628 20.9914 14.1001 21.4885C13.4373 21.9855 13.303 22.9257 13.8001 23.5885C14.6144 24.6742 15.559 25.6546 16.6122 26.508C17.0159 26.8352 17.5085 27 18.0001 27C18.4917 27 18.9843 26.8352 19.388 26.508C20.4412 25.6546 21.3858 24.6742 22.2001 23.5885C22.6971 22.9257 22.5628 21.9855 21.9001 21.4885C21.2373 20.9914 20.2971 21.1257 19.8001 21.7885C19.7024 21.9188 19.6023 22.0472 19.5001 22.1737V16.5Z" fill="white"/>
</svg>
