<svg width="36" height="36" viewBox="0 0 36 36" fill="none" xmlns="http://www.w3.org/2000/svg">
<path opacity="0.28" fill-rule="evenodd" clip-rule="evenodd" d="M28.4902 9.51629C28.4661 8.42442 28.3782 7.51234 28.0434 6.7039C27.4344 5.23373 26.2664 4.06569 24.7962 3.45672C24.1695 3.19713 23.5183 3.09433 22.8144 3.0463C22.1355 2.99998 21.3062 2.99999 20.3015 3H14.9345C12.8899 2.99999 11.2638 2.99998 9.95197 3.10716C8.60856 3.21693 7.46306 3.44652 6.41419 3.98094C4.72073 4.8438 3.3439 6.22063 2.48104 7.91409C1.94661 8.96296 1.71702 10.1085 1.60726 11.4519C1.50008 12.7638 1.50009 14.3898 1.5001 16.4344L1.50005 21.9324C1.4993 23.778 1.49847 25.7863 2.18518 27.4442C3.09863 29.6494 4.8507 31.4015 7.05595 32.3149C7.95833 32.6887 8.92203 32.8486 10.0443 32.9252C11.1017 32.9973 12.3968 32.9999 14.012 33C13.6804 32.0615 13.5 31.0517 13.5 30C13.5 25.0326 17.5248 21 22.4966 21H28.5033C30.8036 21 32.9012 21.8632 34.4912 23.2828C34.5005 22.828 34.5003 22.3755 34.5001 21.9324L34.5001 21.6955C34.5001 19.9944 34.5001 18.6414 34.4253 17.5442C34.3487 16.4219 34.1888 15.4582 33.815 14.5559C32.9016 12.3506 31.1495 10.5985 28.9442 9.68509C28.7947 9.62313 28.6435 9.56706 28.4902 9.51629ZM22.6102 6.03934C22.0455 6.00081 21.319 6 20.2501 6H15.0001C12.8752 6 11.3717 6.00117 10.1963 6.0972C9.03838 6.1918 8.33162 6.37094 7.77616 6.65396C6.64718 7.2292 5.7293 8.14709 5.15406 9.27606C4.91761 9.74012 4.75367 10.3098 4.65096 11.1599C5.36359 10.5504 6.17348 10.0506 7.05595 9.68509C7.95833 9.31131 8.92203 9.15142 10.0443 9.07484C11.1415 8.99999 12.4945 8.99999 14.1957 9L21.9013 9C23.2977 8.99994 24.4686 8.99989 25.4694 9.04735C25.4374 8.42582 25.3769 8.10593 25.2717 7.85195C24.9673 7.11687 24.3832 6.53284 23.6481 6.22836C23.4479 6.14542 23.1614 6.07695 22.6102 6.03934Z" fill="white"/>
<path d="M28.4473 25.5H28.5033C30.9868 25.5 33 27.5147 33 30C33 32.4853 30.9868 34.5 28.5033 34.5H28.4473M22.5527 25.5H22.4967C20.0132 25.5 18 27.5147 18 30C18 32.4853 20.0132 34.5 22.4967 34.5H22.5527M23.9956 30H26.9934" stroke="white" stroke-width="2" stroke-linecap="round" stroke-linejoin="round"/>
<path d="M21 18H25.5" stroke="white" stroke-width="2" stroke-linecap="round" stroke-linejoin="round"/>
</svg>
